<svg xmlns="http://www.w3.org/2000/svg" xmlns:xlink="http://www.w3.org/1999/xlink" version="1.1" style="enable-background:new 0 0 297.221 297.221;" xml:space="preserve" width="297.221" height="297.221"><rect id="backgroundrect" width="100%" height="100%" x="0" y="0" fill="none" stroke="none"/>
















<g class="currentLayer" style=""><title>Layer 1</title><g id="svg_1" class="selected" fill="#ffffff" fill-opacity="1">
	<path d="M285.51638594818115,34.58938594818115 c2.705,-1.913 3.346,-5.658 1.432,-8.363 c-1.9140000000000001,-2.705 -5.657,-3.347 -8.363,-1.432 l-14.984,10.602 c-2.705,1.913 -3.346,5.658 -1.432,8.363 c1.169,1.6520000000000001 3.022,2.535 4.902,2.535 c1.198,0 2.408,-0.35800000000000004 3.461,-1.104 L285.51638594818115,34.58938594818115 z" id="svg_2" fill="#ffffff" fill-opacity="1"/>
	<path d="M245.81838594818115,31.141385948181153 c0.6950000000000002,0.262 1.409,0.38600000000000007 2.11,0.38600000000000007 c2.428,0 4.713,-1.484 5.617,-3.891 l6.46,-17.182 c1.166,-3.101 -0.403,-6.561 -3.505,-7.727 c-3.101,-1.167 -6.562,0.404 -7.728,3.505 l-6.46,17.182 C241.14738594818115,26.51538594818115 242.71638594818114,29.975385948181152 245.81838594818115,31.141385948181153 z" id="svg_3" fill="#ffffff" fill-opacity="1"/>
	<path d="M292.97738594818117,57.36538594818115 c-0.04100000000000001,0 -0.08200000000000002,0 -0.12400000000000001,0 l-18.351,0.15400000000000003 c-3.313,0.06700000000000002 -5.944,2.605 -5.877,5.918 c0.06600000000000002,3.271 2.739,5.928 5.997,5.928 c0.04100000000000001,0 0.08200000000000002,0 0.12400000000000001,0 l18.351,-0.31300000000000006 c3.313,-0.06800000000000002 5.944,-2.732 5.877,-6.045 C298.90838594818115,59.73638594818115 296.23538594818115,57.36538594818115 292.97738594818117,57.36538594818115 z" id="svg_4" fill="#ffffff" fill-opacity="1"/>
	<path d="M255.95438594818114,148.90838594818115 c-3.073,-2.433 -6.711,-4.089 -10.557,-4.867 c0.254,-0.46 0.49100000000000005,-0.928 0.7150000000000001,-1.403 l2.408,-2.408 c9.274000000000001,-9.275 10.248,-23.874 2.2640000000000002,-33.961 c-3.769,-4.761 -9.001,-7.925 -14.812,-9.106 c0.41500000000000004,-0.7640000000000001 0.783,-1.545 1.117,-2.338 c6.316,-9.149000000000001 6.213,-21.445 -0.782,-30.283 c-3.77,-4.764 -9.004,-7.938 -14.818,-9.117 c4.8,-8.826 4.187,-19.826 -2.225,-27.925 c-4.848,-6.125 -12.109,-9.639 -19.923000000000002,-9.639 c-6.257,0 -12.16,2.236 -16.792,6.33 c-0.7010000000000001,-3.979 -2.363,-7.822 -5.012,-11.169 c-4.849,-6.125 -12.11,-9.638 -19.924,-9.639 l0,0 c-6.79,0 -13.164,2.6350000000000002 -17.947,7.418 l-60.84,60.84 l-0.232,-8.12 c-0.10700000000000001,-13.83 -11.392,-25.049 -25.247,-25.049 c-13.604,0 -24.729,10.815 -25.229,24.298000000000002 l-12.146,88.306 l-9.983,11.604 c-5.983,6.957 -5.582,17.481 0.915,23.962 L21.74138594818115,201.45438594818114 c-4.574,6.881 -3.773,16.266 2.206,22.23 l69.667,69.557 c3.329,3.321 7.748,5.148 12.446,5.148 c3.857,0 7.668,-1.295 10.729,-3.645 l14.544,-11.168 c13.991,-3.305 29.416,-10.813 45.874,-22.33 c14.371,-10.058 29.962,-23.46 46.337,-39.836 l34.631,-34.631 c5.107,-5.107 7.795,-12.188 7.375,-19.427 C265.13038594818113,160.12538594818116 261.63338594818117,153.40338594818115 255.95438594818114,148.90838594818115 zM189.87838594818115,33.76338594818115 c2.603,-2.6020000000000003 6.032,-3.903 9.462,-3.903 c3.915,0 7.831,1.6950000000000003 10.515,5.086 c4.256,5.377 3.51,13.18 -1.339,18.028 l-6.177,6.176 c-0.9520000000000001,0.6350000000000001 -1.879,1.314 -2.747,2.083 c-0.7010000000000001,-3.98 -2.364,-7.823 -5.013,-11.169 c-3.257,-4.114 -7.604,-7.043 -12.475,-8.527 L189.87838594818115,33.76338594818115 zM148.15138594818114,19.286385948181152 c2.6020000000000003,-2.6020000000000003 6.032,-3.903 9.462,-3.903 c3.916,0.0010000000000000002 7.831,1.6960000000000002 10.515,5.087 c4.256,5.377 3.51,13.179 -1.339,18.027 l-70.919,70.186 l-0.233,-8.119 c-0.06100000000000001,-7.825 -3.7,-14.812 -9.356,-19.405 L148.15138594818114,19.286385948181152 zM15.378385948181153,178.14538594818114 c-2.082,-2.078 -2.209,-5.41 -0.29100000000000004,-7.640000000000001 l12.281,-14.277 c0.006000000000000002,-0.007000000000000002 0.011000000000000003,-0.017000000000000005 0.012000000000000002,-0.026000000000000006 l12.72,-92.483 c0,-7.286 5.961,-13.247 13.247,-13.247 c7.286,0 13.248,5.961 13.248,13.247 L66.94038594818116,75.75438594818115 c-11.988,1.6460000000000001 -21.322,11.733 -21.78,24.057 l-12.145,88.307 l-3.533,4.108 L15.378385948181153,178.14538594818114 zM249.68938594818115,178.29338594818114 l-34.63,34.631 c-29.577,29.577 -60.494,53.318 -87.653,59.237 c-0.8250000000000001,0.18100000000000002 -1.601,0.528 -2.271,1.043 l-15.655,12.022 c-1.014,0.779 -2.219,1.162 -3.419,1.162 c-1.443,0 -2.88,-0.555 -3.968,-1.641 l-69.671,-69.56 c-2.083,-2.077 -2.21,-5.409 -0.29100000000000004,-7.640000000000001 l12.28,-14.276 c0.007000000000000002,-0.008000000000000002 0.011000000000000003,-0.017000000000000005 0.013000000000000003,-0.026000000000000006 l12.719,-92.483 c0,-7.286 5.962,-13.248 13.248,-13.248 c7.286,0 13.247,5.962 13.247,13.248 l0.6260000000000001,21.824 c0.10400000000000001,3.6260000000000003 3.087,5.987 6.191,5.987 c1.514,0 3.058,-0.5630000000000001 4.309,-1.8130000000000002 l70.431,-70.431 c2.603,-2.603 6.031,-3.903 9.462,-3.903 c3.915,0 7.831,1.6950000000000003 10.515,5.086 c4.256,5.377 3.509,13.18 -1.34,18.028 l-48.518,48.518 c-2.519,2.52 -2.519,6.603 0,9.121 l0,0 c1.275,1.275 2.946,1.913 4.617,1.913 s3.343,-0.6380000000000001 4.617,-1.913 l62.374,-62.373 c2.6020000000000003,-2.603 6.031,-3.903 9.462,-3.903 c3.915,0.0010000000000000002 7.831,1.6960000000000002 10.515,5.087 c4.256,5.376 3.509,13.179 -1.34,18.027 l-62.081,62.081 c-2.553,2.5540000000000003 -2.553,6.692 0,9.246 c1.258,1.258 2.906,1.887 4.556,1.887 c1.6480000000000001,0 3.297,-0.6290000000000001 4.555,-1.887 l48.811,-48.81 c2.603,-2.603 6.032,-3.903 9.462,-3.903 c3.915,0 7.831,1.6950000000000003 10.515,5.087 c4.256,5.376 3.509,13.179 -1.34,18.027 l-48.349,48.35 c-2.612,2.611 -2.612,6.847 0,9.458 l0.07800000000000001,0.07900000000000001 c1.207,1.207 2.789,1.81 4.37,1.81 c1.582,0 3.164,-0.6030000000000001 4.37,-1.81 l29.974,-29.974 c2.701,-2.701 6.317,-4.129 9.921,-4.129 c2.867,0 5.726,0.904 8.107,2.789 C254.86838594818116,163.35238594818117 255.26238594818116,172.72138594818117 249.68938594818115,178.29338594818114 z" id="svg_5" fill="#ffffff" fill-opacity="1"/>
</g><g id="svg_6">
</g><g id="svg_7">
</g><g id="svg_8">
</g><g id="svg_9">
</g><g id="svg_10">
</g><g id="svg_11">
</g><g id="svg_12">
</g><g id="svg_13">
</g><g id="svg_14">
</g><g id="svg_15">
</g><g id="svg_16">
</g><g id="svg_17">
</g><g id="svg_18">
</g><g id="svg_19">
</g><g id="svg_20">
</g></g></svg>